<?xml version="1.0" encoding="utf-8"?>
<!-- Generator: Adobe Illustrator 22.1.0, SVG Export Plug-In . SVG Version: 6.00 Build 0)  -->
<svg version="1.1" id="Capa_1" xmlns="http://www.w3.org/2000/svg" xmlns:xlink="http://www.w3.org/1999/xlink" x="0px" y="0px"
	 viewBox="0 0 70.1 43.9" style="enable-background:new 0 0 70.1 43.9;" xml:space="preserve">
<style type="text/css">
	.st0{fill-rule:evenodd;clip-rule:evenodd;fill:#FFFFFF;}
</style>
<g>
	<path class="st0" d="M56.7,28.2c1.4-0.1,2.7-0.3,3.9-0.8c5.1-1.9,8.4-5.5,9.3-11c1.3-7.7-3.8-14.9-11.5-16.2
		c-5.9-1-10.9,0.8-14.7,5.4c-1.7,2-2.7,4.4-3.3,6.9c-0.4,1.8-0.5,3.6-0.5,5.4c0.1,5.1,1.7,9.8,4.7,14c2.8,3.9,6.5,6.8,10.8,8.8
		c3.3,1.6,6.8,2.5,10.4,2.9c0.1,0,0.3,0,0.4,0c0.3,0,0.5-0.1,0.5-0.4c0.2-1.5,0.5-3.1,0.7-4.6c0.1-0.5-0.1-0.6-0.5-0.8
		c-1.9-0.6-3.8-1.3-5.5-2.5c-2.5-1.8-4-4.3-4.8-7.2C56.7,28.3,56.7,28.3,56.7,28.2z"/>
	<path class="st0" d="M16.8,28.2c1.6-0.1,3.2-0.4,4.7-1c4.7-2,7.6-5.5,8.5-10.6c0.7-3.4,0.1-6.7-1.7-9.7c-2.2-3.7-5.5-6-9.7-6.7
		C13.7-0.6,9.3,0.6,5.5,3.9c-2.3,2-3.7,4.6-4.7,7.5C0,14-0.1,16.6,0.1,19.2c0.2,3.6,1.2,7,2.9,10.1c2.4,4.4,5.8,7.8,10.1,10.3
		c3.5,2.1,7.2,3.3,11.2,4c0.6,0.1,1.3,0.2,1.9,0.3c0.5,0.1,0.7-0.1,0.7-0.6c0.2-1.5,0.4-3,0.7-4.5c0.1-0.4-0.1-0.6-0.5-0.7
		c-1.5-0.5-3-1-4.4-1.8C19.7,34.5,17.7,31.9,16.8,28.2z"/>
</g>
</svg>
