<svg xmlns="http://www.w3.org/2000/svg" viewBox="0 0 105.99 121.98"><defs><style>.cls-1,.cls-2{fill:#4b1f10;}.cls-2{fill-rule:evenodd;}</style></defs><title>Recurso 1</title><g id="Capa_2" data-name="Capa 2"><g id="Layer_2" data-name="Layer 2"><g id="Logo"><path class="cls-1" d="M58.9,18.35l.27,0A1.72,1.72,0,0,0,58.9,18.35Z"/><path class="cls-1" d="M51.08,86.84c1.78,0,3.55,0,5.28,0,.17-2.25.06-10.5,0-12.49A4.8,4.8,0,0,1,56,72.94c-.09-.6-.11-3.81-.11-3.81a9.94,9.94,0,0,1-1-3.5c.58.3.75-.62.75-.62l.68-41a5.14,5.14,0,0,0,.51-.1c0-4.77,1.4-5.44,2-5.52A2.91,2.91,0,0,0,56,20.8c0-.6-.07-12.69-.07-12.69l.36,0-.07-.62,7.19,4.45A2.35,2.35,0,0,0,64,11.6c.21-.18.32-1.12.32-1.12a4.09,4.09,0,0,0,0-.79c0-.11-.31-.31-.34-.39-1.47-4.25-6.23-6.9-6.23-6.9s4.66,3.5,4.74,6.16C62.05,8.23,56.75,5,56.75,5l-.23-.09a4.24,4.24,0,0,1-.43-2.74c.35-1.27-.23-2.53-.71-2a2,2,0,0,0-.48,1.22A5.25,5.25,0,0,1,53.14,2.9a20.83,20.83,0,0,0-2.86,2,10.28,10.28,0,0,0-1.56,3,11.56,11.56,0,0,1-.69,1c-.16.17-.74.09-.72.68A2.33,2.33,0,0,0,47.68,11c.36.6.83,1.26.83,1.26s-.3.42-.15.62a2.54,2.54,0,0,0,.36.39v1.23l-.15,5.08a15.72,15.72,0,0,0-2.09,3.32,14.64,14.64,0,0,0-.81,3.73,10.93,10.93,0,0,0,.58,2.91S43.5,65.17,42.84,67c-.29.66-1.62,3.1-3,3.68,0,1.69-.71,4.09-2,5.09-.27,2.4-.43,10.65-.45,11.78C41.19,87.21,45.83,86.9,51.08,86.84Z"/><path class="cls-1" d="M59,73.25c.38.1.3.59.57.68a3.63,3.63,0,0,1,1.78,1.88s.08-3.47.8-4.8a17.07,17.07,0,0,1,2.16-2.86,8.53,8.53,0,0,0-3.72,2.26A7,7,0,0,0,59,73.25Z"/><path class="cls-1" d="M69.21,75.38c.37,2.53-.58,4.81-2.15,5s-3.1-1.7-3.41-4.26.7-4.65,2.2-4.85S68.85,72.91,69.21,75.38Z"/><path class="cls-1" d="M59.59,34.15l3.22,2a1.16,1.16,0,0,1,.34.38,1.94,1.94,0,0,1,.18.67l.46,12.42L65,50.66l-.19.66-5.38-1.81,0-1.66s.3-.13.29-.29c-.1-1.76-.47-12.29-.47-12.66S59.34,34.21,59.59,34.15Z"/><path class="cls-1" d="M62.69,24c.83,2,.58,4.12-.58,4.6s-2.77-.86-3.55-2.94-.46-4,.67-4.44S61.89,22,62.69,24Z"/><path class="cls-1" d="M58.16,18l-1,.17,0-7.29a.73.73,0,0,1,1.12-.37c.31.15,2.13,1.3,2.56,1.58a3.71,3.71,0,0,1,.94,1.79c.06.39.22,5,.22,5l-1.68-.55"/><path class="cls-1" d="M64.34,28.28s.9.35,1.47.55c-.2-3.31-1.06-9.89-7.1-9.82C64.51,18.94,64.34,28.28,64.34,28.28Z"/><path class="cls-1" d="M16.05,103.08a1.55,1.55,0,0,0-2.18-.8l-.74.28,1.08,2.83.71-.27A1.52,1.52,0,0,0,16.05,103.08Z"/><path class="cls-1" d="M17,105.57a3.22,3.22,0,0,0-1.54.29l-1,.37,1.15,3,1.08-.41a2.51,2.51,0,0,0,1.35-.92,1.5,1.5,0,0,0,.11-1.38A1.46,1.46,0,0,0,17,105.57Z"/><path class="cls-1" d="M65.27,96a2.53,2.53,0,0,0-1.27-.4l-.6-.06-.35,3.23.63.07c1.25.13,2.05-.39,2.17-1.44A1.4,1.4,0,0,0,65.27,96Z"/><polygon class="cls-1" points="51.03 99.61 54.1 99.6 52.56 95.98 51.03 99.61"/><path class="cls-1" d="M104.87,104a5.2,5.2,0,0,1-.64-1.24,4.89,4.89,0,0,1-.3-1.34,4.23,4.23,0,0,1,.08-1.29l.06-.26-.27-.13A115.13,115.13,0,0,0,53.15,88h-.31A115,115,0,0,0,2.19,99.74l-.27.13.06.26a4.21,4.21,0,0,1,.08,1.29,5.2,5.2,0,0,1-.3,1.34l-.06.18h0A5.42,5.42,0,0,1,1.12,104a5,5,0,0,1-.9,1l-.22.18.12.22,6.23,11.47.12.23L6.7,117a3.91,3.91,0,0,1,1-.13H7.9a4.63,4.63,0,0,1,3.3,1.76l.15.2.19-.09a94.16,94.16,0,0,1,41.36-9.59h.19a94.22,94.22,0,0,1,41.36,9.59l.19.09.15-.2a4.7,4.7,0,0,1,.9-.88,4.85,4.85,0,0,1,1.15-.61,4.59,4.59,0,0,1,1.25-.27h.22a3.93,3.93,0,0,1,1,.13l.23.06.12-.23,6.23-11.47.12-.22-.22-.18A4.74,4.74,0,0,1,104.87,104ZM8.19,109.75a1,1,0,0,1-.44.1,1,1,0,0,1-.92-.57,1,1,0,0,1,.48-1.38,1.13,1.13,0,0,1,.44-.1,1,1,0,0,1,.44,2Zm11-1.28a3.5,3.5,0,0,1-1.92,1.42l-2.11.8-.19.07-.07-.19-3.22-8.47-.07-.19.18-.07,1.53-.58a4.3,4.3,0,0,1,1.51-.32,2.76,2.76,0,0,1,.77.11,2.46,2.46,0,0,1,1.55,1.58,2.25,2.25,0,0,1,0,1.84,2.52,2.52,0,0,1,2.25,1.67A2.74,2.74,0,0,1,19.18,108.47Zm11.68-3.9a3.41,3.41,0,0,1-2.41,2,3.87,3.87,0,0,1-1,.13,3.15,3.15,0,0,1-2.05-.71,3.67,3.67,0,0,1-1.15-2.07l-1.43-5.66L22.77,98,23,98l1-.25.19,0,.05.19,1.36,5.39a2.41,2.41,0,0,0,1.14,1.83,2,2,0,0,0,.9.18,2.29,2.29,0,0,0,.54-.06,2.36,2.36,0,0,0,1.21-.79,2.41,2.41,0,0,0,.13-2.14l-1.37-5.4L28,96.69l.2,0,1-.25.2,0,.05.2,1.42,5.65A3.73,3.73,0,0,1,30.86,104.57Zm13.33-1.7a5.08,5.08,0,0,1-2.72,1.27c-.22,0-.44,0-.66,0a4.9,4.9,0,0,1-.49-9.76c.14,0,.35,0,.62,0a4.42,4.42,0,0,1,2.27.63l.09,0v.1l.15,1.24.06.48-.38-.3a4.15,4.15,0,0,0-1.22-.66,3.78,3.78,0,0,0-1.11-.17l-.39,0a3.38,3.38,0,0,0-2.32,1.34,3.69,3.69,0,0,0-.66,2.64,3.43,3.43,0,0,0,3.46,3.07,2.83,2.83,0,0,0,.41,0,3.49,3.49,0,0,0,1.53-.59,3.93,3.93,0,0,0,.9-.84L44,101l.06.48.16,1.24v.1Zm12.49.43H55.43l0-.13-1-2.43-3.59,0-1,2.44-.05.12H48.14l.12-.28,4.14-9.52.18-.42.18.42L56.87,103l.12.28Zm10.05.91-1.22-.13h-.1l0-.1L63.12,99.9l-.39,3.68,0,.2-.2,0-1-.1-.2,0,0-.2,1-9,0-.2.2,0,1.44.15a4.08,4.08,0,0,1,2.25.78,2.73,2.73,0,0,1-1.56,4.7l2.27,4,.19.34ZM78.54,97l-.19.93,0,.19-.2,0-3.42-.73-.48,2.25,3.32.7.19,0,0,.2-.2.93,0,.2-.19,0-3.32-.7-.65,3,3.42.73.2,0,0,.2-.2.93,0,.2-.2,0-4.6-1-.2,0,0-.19L73.55,96l0-.2.2,0,4.6,1,.2,0Zm6.92,10.23.2.06-.06.19-.29.91-.06.19-.19-.06-3.35-1.05-.19-.06.06-.19,2.71-8.65.06-.19.19.06,1,.3.19.06-.06.19-2.36,7.55Zm8.93-5.09L91,110.57l-.08.18-.18-.07-.94-.37-.18-.08.07-.19,3.38-8.41.08-.18.18.07.94.38.18.07Zm4.77,7.12a1,1,0,0,1-.93.57,1,1,0,0,1-.44-.1,1,1,0,0,1,.44-2,1.14,1.14,0,0,1,.45.1,1.06,1.06,0,0,1,.53.59A1,1,0,0,1,99.16,109.28Z"/><path class="cls-1" d="M97.31,121.9v-2.42h-.93v-.43h2.33v.43h-.93v2.42Zm1.72,0v-2.85h.7l.72,2.28.7-2.28h.69v2.85h-.44v-2.39l-.73,2.39h-.43l-.77-2.42v2.42Z"/><g id="Tagline"><path class="cls-1" d="M29.56,121.85l.48-3.06,1.12,2.45,1.13-2.46.46,3.07h-.33l-.28-2-1,2.14-1-2.14-.29,2Z"/><path class="cls-1" d="M35.57,119.25H34.39v.86h1.14v.31H34.39v1.13h1.18v.3H34.06V119h1.51Z"/><path class="cls-1" d="M37.36,120.35l-.78-1.4h.36l.6,1.09.62-1.09h.37l-.8,1.4.84,1.5H38.2l-.66-1.19-.68,1.19H36.5Z"/><path class="cls-1" d="M40,119v2.9h-.33V119Z"/><path class="cls-1" d="M43.59,119.59a1.54,1.54,0,0,0-.37-.27,1.3,1.3,0,0,0-.51-.11,1.2,1.2,0,1,0,.55,2.25,1.33,1.33,0,0,0,.33-.24v.4a1.49,1.49,0,0,1-.87.28,1.5,1.5,0,1,1,0-3,1.32,1.32,0,0,1,.85.29Z"/><path class="cls-1" d="M46.44,121H45.2l-.35.82H44.5l1.33-3,1.3,3h-.35Zm-.13-.3-.49-1.16-.49,1.16Z"/><path class="cls-1" d="M48.19,121.85v-3l2.26,2.37V119h.32v3l-2.26-2.37v2.24Z"/><path class="cls-1" d="M56.05,119.59a1.54,1.54,0,0,0-.37-.27,1.25,1.25,0,0,0-.5-.11,1.2,1.2,0,1,0,.54,2.25,1.33,1.33,0,0,0,.33-.24v.4a1.49,1.49,0,0,1-.87.28,1.5,1.5,0,1,1,0-3,1.32,1.32,0,0,1,.85.29Z"/><path class="cls-1" d="M57.62,120.13h1.49V119h.32v2.9h-.32v-1.42H57.62v1.42H57.3V119h.32Z"/><path class="cls-1" d="M60.67,120.4a1.51,1.51,0,1,1,1.51,1.5A1.48,1.48,0,0,1,60.67,120.4Zm.33,0a1.18,1.18,0,1,0,1.18-1.19A1.19,1.19,0,0,0,61,120.4Z"/><path class="cls-1" d="M67.15,119.59a1.42,1.42,0,0,0-.38-.27,1.22,1.22,0,0,0-.5-.11,1.2,1.2,0,1,0,.54,2.25,1.44,1.44,0,0,0,.34-.24v.4a1.54,1.54,0,0,1-.88.28,1.5,1.5,0,1,1,0-3,1.36,1.36,0,0,1,.86.29Z"/><path class="cls-1" d="M68.23,120.4a1.51,1.51,0,1,1,1.51,1.5A1.49,1.49,0,0,1,68.23,120.4Zm.33,0a1.18,1.18,0,1,0,1.18-1.19A1.19,1.19,0,0,0,68.56,120.4Z"/><path class="cls-1" d="M72.81,119v2.6h.8v.3H72.49V119Z"/><path class="cls-1" d="M76.3,121H75.06l-.34.82h-.36l1.33-3,1.31,3h-.36Zm-.13-.3-.48-1.16-.5,1.16Z"/><path class="cls-1" d="M78.57,119.25v2.6h-.32v-2.6h-.71V119h1.74v.3Z"/><path class="cls-1" d="M81.87,119.25H80.68v.86h1.15v.31H80.68v1.13h1.19v.3H80.36V119h1.51Z"/><path class="cls-1" d="M48.88,116.41,50,115.06c.08-.09.3-.34.38-.46a.82.82,0,0,0,.17-.49.63.63,0,0,0-1.16-.34.81.81,0,0,0-.11.38H49a1,1,0,0,1,.24-.66,1,1,0,0,1,1.74.63,1.14,1.14,0,0,1-.26.68,6.16,6.16,0,0,1-.43.53l-.67.75h1.35v.33Z"/><path class="cls-1" d="M52.5,116a2.09,2.09,0,0,1-.32-1.17,2,2,0,0,1,.32-1.17.93.93,0,0,1,1.63,0,2,2,0,0,1,.32,1.17,2.09,2.09,0,0,1-.32,1.17.94.94,0,0,1-1.63,0Zm.27-2.14a2.06,2.06,0,0,0,0,1.93.59.59,0,0,0,1.09,0,2.06,2.06,0,0,0,0-1.93.59.59,0,0,0-1.09,0Z"/><path class="cls-1" d="M56.18,113.55h-.53l.18-.33h.71v3.19h-.36Z"/><path class="cls-1" d="M60,113.55H59l-.2.68.2,0a1,1,0,0,1,1.05,1.11,1.11,1.11,0,0,1-1.16,1.14,1,1,0,0,1-.71-.25,1.26,1.26,0,0,1-.28-.32l.28-.2a.77.77,0,0,0,.22.26.76.76,0,0,0,.51.19.79.79,0,0,0,.78-.82.75.75,0,0,0-.78-.78,1,1,0,0,0-.61.22l.46-1.54H60Z"/><path class="cls-2" d="M46,115l-.29-.12-2.34.11s0,0,0,0,0,0,0,0l2.34.11L46,115a.05.05,0,0,0,0,0s0,0,0,0Zm17,0,.29-.12,2.34.11s0,0,0,0,0,0,0,0l-2.34.11L63,115s0,0,0,0S62.93,115,63,115Z"/></g></g></g></g></svg>