<svg xmlns="http://www.w3.org/2000/svg" viewBox="0 0 365.89 115.57"><defs><style>.cls-1{fill:#30323d;}</style></defs><g id="Capa_2" data-name="Capa 2"><g id="Capa_1-2" data-name="Capa 1"><path class="cls-1" d="M45.83,115.57a48.54,48.54,0,0,1-18.26-3.37,42.91,42.91,0,0,1-14.51-9.5A43.93,43.93,0,0,1,3.47,88.18,47.83,47.83,0,0,1,0,69.75,47.91,47.91,0,0,1,3.47,51.31a44,44,0,0,1,9.59-14.52A42.73,42.73,0,0,1,27.57,27.3a48.54,48.54,0,0,1,18.26-3.38A48.54,48.54,0,0,1,64.09,27.3,42.83,42.83,0,0,1,78.6,36.79a44,44,0,0,1,9.59,14.52,47.91,47.91,0,0,1,3.47,18.44,47.83,47.83,0,0,1-3.47,18.43A43.93,43.93,0,0,1,78.6,102.7a43,43,0,0,1-14.51,9.5A48.54,48.54,0,0,1,45.83,115.57Zm0-19.53q9.68,0,15.34-6.58t5.66-19.71q0-13.15-5.66-19.73T45.83,43.45q-9.67,0-15.33,6.57T24.83,69.75q0,13.14,5.67,19.71T45.83,96Z"/><path class="cls-1" d="M158.84,111.37a25.13,25.13,0,0,1-6,1.47,59.1,59.1,0,0,1-8.22.54A41.46,41.46,0,0,1,130.27,111a31.4,31.4,0,0,1-11.14-6.85,30.34,30.34,0,0,1-7.21-11A41.47,41.47,0,0,1,109.36,78V0H134.2V26.11h21.91V45.28H134.2V78a15.67,15.67,0,0,0,3.38,10.32q3.36,4.11,9.58,4.1a33,33,0,0,0,6.48-.54,38.94,38.94,0,0,0,5.2-1.46Z"/><path class="cls-1" d="M220.19,111.37a25.25,25.25,0,0,1-6,1.47,59.1,59.1,0,0,1-8.22.54A41.46,41.46,0,0,1,191.62,111a31.32,31.32,0,0,1-11.14-6.85,30.21,30.21,0,0,1-7.21-11A41.47,41.47,0,0,1,170.71,78V0h24.83V26.11h21.91V45.28H195.54V78a15.73,15.73,0,0,0,3.38,10.32q3.38,4.11,9.59,4.1a33.11,33.11,0,0,0,6.48-.54,39.8,39.8,0,0,0,5.2-1.46Z"/><path class="cls-1" d="M318.23,113c-1.21.25-2.67.52-4.38.83s-3.83.57-6.39.82-5.6.46-9.12.64-7.67.27-12.42.27a95.7,95.7,0,0,1-22.55-2.46,48.26,48.26,0,0,1-17.53-8,35.85,35.85,0,0,1-11.41-14.42q-4-8.94-4-21.91A42.57,42.57,0,0,1,233.88,52a44.55,44.55,0,0,1,9.77-14.34,48.31,48.31,0,0,1,15.07-9.95,49.32,49.32,0,0,1,19.53-3.74,50.82,50.82,0,0,1,15.61,2.37,36,36,0,0,1,13,7.3,35.1,35.1,0,0,1,8.86,12.51A45.55,45.55,0,0,1,319,64.27V68.1c0,1.46-.06,2.86-.19,4.2h-65a26,26,0,0,0,3.1,11.14,19,19,0,0,0,6.94,6.94,30.64,30.64,0,0,0,10.59,3.56,87.18,87.18,0,0,0,13.87,1,183.54,183.54,0,0,0,19.35-.82,67.81,67.81,0,0,0,10.59-1.74ZM294,56.23a14.58,14.58,0,0,0-4-10.31q-4-4.29-12.24-4.29T264,45.56a22.56,22.56,0,0,0-8,10.67Z"/><path class="cls-1" d="M351.83,115.57a12.58,12.58,0,0,1-10-4.47A16.1,16.1,0,0,1,338,100.23a15.41,15.41,0,0,1,3.84-10.67A13,13,0,0,1,352,85.26a12.82,12.82,0,0,1,10,4.3,15.41,15.41,0,0,1,3.84,10.67,16.1,16.1,0,0,1-3.84,10.87A12.78,12.78,0,0,1,351.83,115.57Z"/></g></g></svg>